<svg width="192" height="192" viewBox="0 0 192 192" xmlns="http://www.w3.org/2000/svg">
  <rect width="192" height="192" fill="#10b981" rx="32"/>
  <g transform="translate(96, 96)">
    <!-- Planta -->
    <path d="M -8 20 Q -8 0 -20 -10 Q -15 -5 -8 -5 Q -8 -15 -15 -25 Q -10 -20 -8 -15 L -8 -5" 
          fill="#ffffff" opacity="0.9"/>
    <path d="M 8 20 Q 8 0 20 -10 Q 15 -5 8 -5 Q 8 -15 15 -25 Q 10 -20 8 -15 L 8 -5" 
          fill="#ffffff" opacity="0.9"/>
    <rect x="-3" y="-5" width="6" height="30" fill="#ffffff"/>
    
    <!-- Relógio -->
    <circle cx="25" cy="-25" r="18" fill="#ffffff" opacity="0.95"/>
    <circle cx="25" cy="-25" r="15" fill="#10b981"/>
    <line x1="25" y1="-25" x2="25" y2="-32" stroke="#ffffff" stroke-width="2" stroke-linecap="round"/>
    <line x1="25" y1="-25" x2="30" y2="-25" stroke="#ffffff" stroke-width="2" stroke-linecap="round"/>
  </g>
</svg>
