<svg width="512" height="512" viewBox="0 0 512 512" xmlns="http://www.w3.org/2000/svg">
  <rect width="512" height="512" fill="#10b981" rx="85"/>
  <g transform="translate(256, 256)">
    <!-- Planta -->
    <path d="M -20 50 Q -20 0 -50 -25 Q -38 -12 -20 -12 Q -20 -38 -38 -62 Q -25 -50 -20 -38 L -20 -12" 
          fill="#ffffff" opacity="0.9"/>
    <path d="M 20 50 Q 20 0 50 -25 Q 38 -12 20 -12 Q 20 -38 38 -62 Q 25 -50 20 -38 L 20 -12" 
          fill="#ffffff" opacity="0.9"/>
    <rect x="-8" y="-12" width="16" height="75" fill="#ffffff" rx="3"/>
    
    <!-- Relógio -->
    <circle cx="65" cy="-65" r="48" fill="#ffffff" opacity="0.95"/>
    <circle cx="65" cy="-65" r="40" fill="#10b981"/>
    <line x1="65" y1="-65" x2="65" y2="-85" stroke="#ffffff" stroke-width="5" stroke-linecap="round"/>
    <line x1="65" y1="-65" x2="80" y2="-65" stroke="#ffffff" stroke-width="5" stroke-linecap="round"/>
    <circle cx="65" cy="-65" r="3" fill="#ffffff"/>
  </g>
</svg>
